# File created by Blade
# Date/Time:  Tue Jan 27 19:54:32 2015
#---------------------------------------------------------
:version 1.10
:name HOM
:units
  mass 1.0
  length 1.000000
  angle deg
:documentation
     Acclaim Skeleton File
:root
   axis xyz
   order TX TY TZ RX RY RZ
   position 0.000000 0.000000 0.000000
   orientation 0 0 0
:bonedata
   begin
      id 1
      name Spine_dum
      direction 0.000000 1.000000 0.000000
      length 6.116652
      axis 0.0 0.0 0.0 xyz
   end
   begin
      id 2
      name LeftUpLeg_dum
      direction 1.000000 0.000000 0.000000
      length 4.711765
      axis 0.0 0.0 0.0 xyz
   end
   begin
      id 3
      name RightUpLeg_dum
      direction -1.000000 0.000000 0.000000
      length 4.711765
      axis 0.0 0.0 0.0 xyz
   end
   begin
      id 4
      name Spine
      direction 0.000000 1.000000 0.000000
      length 0.000000
      axis 0.0 0.0 0.0 xyz
      dof rx ry rz
   end
   begin
      id 5
      name Spine_dum1
      direction 0.000000 1.000000 0.000000
      length 15.225563
      axis 0.0 0.0 0.0 xyz
   end
   begin
      id 6
      name Spine_dum2
      direction 0.000000 1.000000 0.000000
      length 8.977654
      axis 0.0 0.0 0.0 xyz
   end
   begin
      id 7
      name Spine_dum3
      direction 0.000000 1.000000 0.000000
      length 8.977654
      axis 0.0 0.0 0.0 xyz
   end
   begin
      id 8
      name Head
      direction 0.000000 1.000000 0.000000
      length 4.527550
      axis 0.0 0.0 0.0 xyz
      dof rx ry rz
   end
   begin
      id 9
      name LeftShoulder
      direction 1.000000 0.000000 0.000000
      length 7.110130
      axis 0.0 0.0 -90.0 xyz
      dof rx ry rz
   end
   begin
      id 10
      name LeftArm
      direction 1.000000 0.000000 0.000000
      length 10.398341
      axis 0.0 0.0 -90.0 xyz
      dof rx ry rz
   end
   begin
      id 11
      name LeftForeArm
      direction 1.000000 0.000000 0.000000
      length 8.888997
      axis 0.0 0.0 -90.0 xyz
      dof ry rz rx
   end
   begin
      id 12
      name LeftHand
      direction 0.000000 0.000000 0.000000
      length 0.000000
      axis 0.0 0.0 -90.0 xyz
      dof rx ry rz
   end
   begin
      id 13
      name LeftHand_dum1
      direction 0.000000 0.000000 0.000000
      length 0.000000
      axis 0.0 0.0 -90.0 xyz
   end
   begin
      id 14
      name LeftHand_dum2
      direction 1.000000 0.000000 0.000000
      length 3.937000
      axis 0.0 0.0 -90.0 xyz
   end
   begin
      id 15
      name LeftHandThumb1
      direction 0.000000 0.000000 1.000000
      length 3.937000
      axis 0.0 0.0 -90.0 xyz
      dof rx rz ry
   end
   begin
      id 16
      name RightShoulder
      direction -1.000000 0.000000 0.000000
      length 7.110130
      axis 0.0 0.0 90.0 xyz
      dof rx ry rz
   end
   begin
      id 17
      name RightArm
      direction -1.000000 0.000000 0.000000
      length 10.398341
      axis 0.0 0.0 90.0 xyz
      dof rx ry rz
   end
   begin
      id 18
      name RightForeArm
      direction -1.000000 0.000000 0.000000
      length 8.888997
      axis 0.0 0.0 90.0 xyz
      dof ry rz rx
   end
   begin
      id 19
      name RightHand
      direction 0.000000 0.000000 0.000000
      length 0.000000
      axis 0.0 0.0 90.0 xyz
      dof rx ry rz
   end
   begin
      id 20
      name RightHand_dum1
      direction 0.000000 0.000000 0.000000
      length 0.000000
      axis 0.0 0.0 90.0 xyz
   end
   begin
      id 21
      name RightHand_dum2
      direction -1.000000 0.000000 0.000000
      length 3.937000
      axis 0.0 0.0 90.0 xyz
   end
   begin
      id 22
      name RightHandThumb1
      direction 0.000000 0.000000 1.000000
      length 3.937000
      axis 0.0 0.0 90.0 xyz
      dof rx rz ry
   end
   begin
      id 23
      name LeftUpLeg
      direction 0.000000 -1.000000 0.000000
      length 15.510451
      axis 0.0 0.0 0.0 xyz
      dof rx ry rz
   end
   begin
      id 24
      name LeftLeg
      direction 0.000000 -1.000000 0.000000
      length 14.858061
      axis 0.0 0.0 0.0 xyz
      dof rx ry rz
   end
   begin
      id 25
      name LeftFoot
      direction 0.000000 -0.258819 0.965926
      length 5.128852
      axis 15.0 0.0 0.0 xyz
      dof rx ry rz
   end
   begin
      id 26
      name LeftToeBase
      direction 0.000000 0.000000 1.000000
      length 2.952750
      axis 0.0 0.0 0.0 xyz
      dof rx ry rz
   end
   begin
      id 27
      name RightUpLeg
      direction 0.000000 -1.000000 0.000000
      length 15.510451
      axis 0.0 0.0 0.0 xyz
      dof rx ry rz
   end
   begin
      id 28
      name RightLeg
      direction 0.000000 -1.000000 0.000000
      length 14.858061
      axis 0.0 0.0 0.0 xyz
      dof rx ry rz
   end
   begin
      id 29
      name RightFoot
      direction 0.000000 -0.258819 0.965926
      length 5.128852
      axis 15.0 0.0 0.0 xyz
      dof rx ry rz
   end
   begin
      id 30
      name RightToeBase
      direction 0.000000 0.000000 1.000000
      length 2.952750
      axis 0.0 0.0 0.0 xyz
      dof rx ry rz
   end
:hierarchy
   begin
      root Spine_dum LeftUpLeg_dum RightUpLeg_dum
      Spine_dum Spine
      LeftUpLeg_dum LeftUpLeg
      RightUpLeg_dum RightUpLeg
      Spine Spine_dum1 Spine_dum2 Spine_dum3
      Spine_dum1 Head
      Spine_dum2 LeftShoulder
      Spine_dum3 RightShoulder
      LeftShoulder LeftArm
      LeftArm LeftForeArm
      LeftForeArm LeftHand
      LeftHand LeftHand_dum1 LeftHand_dum2
      LeftHand_dum1 LeftHandThumb1
      RightShoulder RightArm
      RightArm RightForeArm
      RightForeArm RightHand
      RightHand RightHand_dum1 RightHand_dum2
      RightHand_dum1 RightHandThumb1
      LeftUpLeg LeftLeg
      LeftLeg LeftFoot
      LeftFoot LeftToeBase
      RightUpLeg RightLeg
      RightLeg RightFoot
      RightFoot RightToeBase
   end

# File created by Blade
# Date/Time:  Tue Jan 27 19:54:25 2015
# Frame Rate: 120.000 fps
#------------------------------------------------------
:FULLY-SPECIFIED
:DEGREES
1442
root 5.244894 33.172751 -0.057787 -12.999783 -6.672401 -15.200117
Spine 14.295821 6.685186 14.898940
Head 9.015974 -8.129803 1.366839
LeftShoulder -13.345454 0.086590 28.300276
LeftArm -8.815823 35.475244 -87.621842
LeftForeArm 3.061964 0.000000 89.423052
LeftHand 23.118781 -0.000000 35.597234
LeftHandThumb1 -26.253704 0.000000 33.147579
RightShoulder -16.780862 -15.650517 -20.350912
RightArm 12.549448 -27.932453 80.839130
RightForeArm -18.096225 0.000000 23.175852
RightHand 16.794206 0.000000 9.156582
RightHandThumb1 -24.326973 -0.000000 -32.862282
LeftUpLeg 17.670348 5.568099 9.981866
LeftLeg 4.827846 -0.000000 -0.000000
LeftFoot -21.127165 14.404088 -16.461920
LeftToeBase 20.029373 -0.000000 -0.000000
RightUpLeg -80.332700 11.051825 11.127026
RightLeg 115.184960 -0.000000 -0.000000
RightFoot 20.620371 -35.209516 17.597758
RightToeBase 10.273073 -0.000000 -0.000000
1443
root 5.246420 33.174935 -0.062504 -12.932196 -6.750101 -15.231296
Spine 14.261703 6.610155 14.925500
Head 9.006846 -8.018806 1.394781
LeftShoulder -13.322645 0.126876 28.324747
LeftArm -8.795538 35.595161 -87.541403
LeftForeArm 3.065305 -0.000000 89.471160
LeftHand 23.047301 -0.000000 35.335089
LeftHandThumb1 -26.253704 0.000000 33.147579
RightShoulder -16.867350 -15.670549 -20.286788
RightArm 12.605417 -28.105574 80.700097
RightForeArm -17.929443 -0.000000 23.280683
RightHand 16.641006 -0.000000 8.977468
RightHandThumb1 -24.326973 -0.000000 -32.862282
LeftUpLeg 17.635844 5.551059 9.992885
LeftLeg 4.787370 -0.000000 -0.000000
LeftFoot -21.125768 14.451433 -16.476219
LeftToeBase 19.996756 -0.000000 -0.000000
RightUpLeg -80.367753 11.094004 10.832094
RightLeg 115.234746 -0.000000 -0.000000
RightFoot 20.747599 -35.101546 17.574267
RightToeBase 10.025715 -0.000000 -0.000000
1444
root 5.250294 33.177836 -0.067781 -12.886996 -6.789630 -15.274342
Spine 14.242191 6.463593 14.967529
Head 9.008117 -7.955812 1.411708
LeftShoulder -13.296164 0.132306 28.350419
LeftArm -8.840529 35.698422 -87.508355
LeftForeArm 3.052306 -0.000000 89.521957
LeftHand 22.952711 0.000000 34.933088
LeftHandThumb1 -26.253704 0.000000 33.147579
RightShoulder -16.854244 -15.663570 -20.277120
RightArm 12.578575 -27.975796 80.713643
RightForeArm -18.045063 -0.000000 23.284208
RightHand 16.820610 0.000000 9.113149
RightHandThumb1 -24.326973 -0.000000 -32.862282
LeftUpLeg 17.615542 5.540324 10.015333
LeftLeg 4.746446 -0.000000 -0.000000
LeftFoot -21.117921 14.522392 -16.441350
LeftToeBase 19.978306 -0.000000 -0.000000
RightUpLeg -80.371750 11.059834 10.571068
RightLeg 115.266688 -0.000000 -0.000000
RightFoot 20.750382 -35.162644 17.534332
RightToeBase 10.282673 -0.000000 -0.000000
1445
root 5.251100 33.181619 -0.069190 -12.824578 -6.837676 -15.338414
Spine 14.194953 6.361708 15.029726
Head 9.001692 -7.890822 1.464172
LeftShoulder -13.280532 0.253525 28.377364
LeftArm -8.709108 35.893457 -87.368566
LeftForeArm 2.963441 0.000000 89.543148
LeftHand 22.873576 0.000000 34.703064
LeftHandThumb1 -26.253704 0.000000 33.147579
RightShoulder -16.892483 -15.683619 -20.233485
RightArm 12.531758 -27.796746 80.739516
RightForeArm -18.140126 0.000000 23.282803
RightHand 16.933934 -0.000000 9.115703
RightHandThumb1 -24.326973 -0.000000 -32.862282
LeftUpLeg 17.600674 5.627109 10.095812
LeftLeg 4.723241 -0.000000 -0.000000
LeftFoot -21.090845 14.494923 -16.320718
LeftToeBase 19.774336 -0.000000 -0.000000
RightUpLeg -80.378603 11.018955 10.351426
RightLeg 115.325351 -0.000000 -0.000000
RightFoot 20.567140 -35.203252 17.604753
RightToeBase 10.351214 -0.000000 -0.000000
1446
root 5.252760 33.186119 -0.074465 -12.758596 -6.903409 -15.393632
Spine 14.162965 6.298982 15.086078
Head 8.982130 -7.830234 1.525167
LeftShoulder -13.252331 0.358933 28.403380
LeftArm -8.596116 36.040555 -87.244151
LeftForeArm 2.838830 0.000000 89.561273
LeftHand 22.847020 -0.000000 34.717103
LeftHandThumb1 -26.253704 0.000000 33.147579
RightShoulder -16.939748 -15.708048 -20.178241
RightArm 12.499201 -27.760595 80.720431
RightForeArm -18.207093 -0.000000 23.312808
RightHand 16.916803 -0.000000 9.072172
RightHandThumb1 -24.326973 -0.000000 -32.862282
LeftUpLeg 17.593562 5.757642 10.187153
LeftLeg 4.624443 -0.000000 -0.000000
LeftFoot -21.061194 14.446409 -16.377107
LeftToeBase 19.941683 -0.000000 -0.000000
RightUpLeg -80.384592 10.984671 10.145760
RightLeg 115.337017 -0.000000 -0.000000
RightFoot 20.537151 -35.318729 17.466057
RightToeBase 10.357593 -0.000000 -0.000000
1447
root 5.254646 33.188124 -0.078232 -12.709229 -6.938091 -15.415218
Spine 14.143215 6.235897 15.085361
Head 8.942355 -7.780851 1.636009
LeftShoulder -13.209753 0.409033 28.469296
LeftArm -8.564632 36.155570 -87.161771
LeftForeArm 2.767506 -0.000000 89.606483
LeftHand 22.840476 -0.000000 34.361614
LeftHandThumb1 -26.253704 0.000000 33.147579
RightShoulder -17.002040 -15.735419 -20.117740
RightArm 12.457272 -27.711401 80.721863
RightForeArm -18.212148 -0.000000 23.340402
RightHand 16.861388 -0.000000 9.060526
RightHandThumb1 -24.326973 -0.000000 -32.862282
LeftUpLeg 17.593564 5.860653 10.237875
LeftLeg 4.529315 -0.000000 -0.000000
LeftFoot -20.987277 14.366798 -16.387152
LeftToeBase 19.979439 -0.000000 -0.000000
RightUpLeg -80.408006 10.926838 9.904027
RightLeg 115.388732 -0.000000 -0.000000
RightFoot 20.215813 -35.444235 17.701399
RightToeBase 10.712703 -0.000000 -0.000000
1448
root 5.259646 33.191282 -0.082025 -12.625472 -6.986128 -15.444480
Spine 14.091523 6.193005 15.117476
Head 8.882089 -7.763529 1.722224
LeftShoulder -13.242250 0.396884 28.513210
LeftArm -8.552939 36.365154 -87.068360
LeftForeArm 2.725355 -0.000000 89.623265
LeftHand 22.799646 -0.000000 34.008139
LeftHandThumb1 -26.253704 0.000000 33.147579
RightShoulder -17.075805 -15.773144 -20.074457
RightArm 12.412337 -27.661986 80.734604
RightForeArm -18.262700 0.000000 23.313363
RightHand 16.929109 -0.000000 9.048192
RightHandThumb1 -24.326973 -0.000000 -32.862282
LeftUpLeg 17.577891 5.877357 10.249055
LeftLeg 4.415269 -0.000000 -0.000000
LeftFoot -20.952771 14.405209 -16.420334
LeftToeBase 20.019565 -0.000000 -0.000000
RightUpLeg -80.441142 10.853145 9.691912
RightLeg 115.421422 -0.000000 -0.000000
RightFoot 19.980172 -35.479145 17.822982
RightToeBase 10.660731 -0.000000 -0.000000
